<svg xmlns="http://www.w3.org/2000/svg" width="45" height="45" viewBox="0 0 45 45">
    <g fill="#9B9B9B" fill-rule="nonzero">
        <path d="M44.297 0h-2.813a.703.703 0 0 0-.703.703v15.469H37.97V9.14h.703a.703.703 0 0 0 .703-.704V5.626a.703.703 0 0 0-.703-.703H21.797a.703.703 0 0 0-.703.703v2.813c0 .388.315.703.703.703h.703v7.03h-5.625v-4.218h.703a.703.703 0 0 0 .703-.703V8.437a.703.703 0 0 0-.703-.703h-.703V.704A.703.703 0 0 0 16.172 0H7.734a.703.703 0 0 0-.703.703v7.031h-.703a.703.703 0 0 0-.703.704v2.812c0 .388.315.703.703.703h.703v4.219H4.22V.703A.703.703 0 0 0 3.516 0H.703A.703.703 0 0 0 0 .703v43.594c0 .388.315.703.703.703h43.594a.703.703 0 0 0 .703-.703V.703A.703.703 0 0 0 44.297 0zM2.813 43.594H1.405V1.406h1.407v42.188zM22.5 6.328h15.469v1.406H22.5V6.328zm1.406 7.031V9.141h12.657v7.03H23.905v-1.405h8.438v-1.407h-8.438zM8.438 6.33h2.812V4.921H8.437V1.406h7.032v6.328H8.438V6.328zM7.03 9.14h9.844v1.406H7.031V9.14zm1.407 4.218v-1.406h7.03v4.219h-7.03v-1.406h2.812v-1.407H8.437zm7.03 30.235h-7.03v-1.407h2.812v-1.406H8.437v-2.11h7.032v4.923zm-8.437-6.328v-1.407h9.844v1.407H7.031zm29.532 6.328H23.905v-1.407h8.438v-1.406h-8.438v-4.218h12.657v7.03zM22.5 35.156V33.75h15.469v1.406H22.5zm18.281 8.438H37.97v-7.032h.703a.703.703 0 0 0 .703-.703v-2.812a.703.703 0 0 0-.703-.703H21.797a.703.703 0 0 0-.703.703v2.812c0 .389.315.703.703.703h.703v7.032h-5.625v-4.922h.703a.703.703 0 0 0 .703-.703v-2.813a.703.703 0 0 0-.703-.703H6.328a.703.703 0 0 0-.703.703v2.813c0 .388.315.703.703.703h.703v4.922H4.22V30.937H40.78v12.657zM7.734 26.719v-5.625h7.032v8.437H7.734v-1.406h2.813v-1.406H7.734zm11.25 0v-5.625h7.032v8.437h-7.032v-1.406h2.813v-1.406h-2.813zm11.25 0v-5.625h7.032v8.437h-7.032v-1.406h2.813v-1.406h-2.813zm10.547 2.812h-2.11v-9.14a.703.703 0 0 0-.702-.703H29.53a.703.703 0 0 0-.703.703v9.14h-1.406v-9.14a.703.703 0 0 0-.703-.703H18.28a.703.703 0 0 0-.703.703v9.14h-1.406v-9.14a.703.703 0 0 0-.703-.703H7.03a.703.703 0 0 0-.703.703v9.14h-2.11V17.578H40.782v11.953zm2.813 14.063h-1.407V1.406h1.407v42.188z"/>
        <path d="M33.75 40.781h1.406v1.406H33.75zM12.656 40.781h1.406v1.406h-1.406zM33.75 13.359h1.406v1.406H33.75zM12.656 13.359h1.406v1.406h-1.406zM11.953 26.719h1.406v1.406h-1.406zM12.656 4.922h1.406v1.406h-1.406zM23.203 26.719h1.406v1.406h-1.406zM34.453 26.719h1.406v1.406h-1.406z"/>
    </g>
</svg>
