<svg xmlns="http://www.w3.org/2000/svg" width="45" height="45" viewBox="0 0 45 45">
    <g fill="#9B9B9B" fill-rule="nonzero">
        <path d="M44.053 18.144L40.25.564A.714.714 0 0 0 39.55 0H4.55a.714.714 0 0 0-.698.564L.047 18.144a.706.706 0 0 0-.016.157v.006a3.775 3.775 0 0 0 3.043 3.694v15.404a.715.715 0 0 0 1.427 0V22a3.761 3.761 0 0 0 2.33-1.496 3.749 3.749 0 0 0 3.044 1.565c1.251 0 2.36-.618 3.044-1.565a3.749 3.749 0 0 0 3.044 1.565c1.25 0 2.36-.618 3.043-1.565a3.749 3.749 0 0 0 3.044 1.565c1.251 0 2.36-.618 3.044-1.565a3.749 3.749 0 0 0 3.044 1.565c1.25 0 2.36-.618 3.043-1.565a3.749 3.749 0 0 0 3.044 1.565c1.251 0 2.36-.618 3.044-1.565A3.76 3.76 0 0 0 39.599 22v3.174a.715.715 0 0 0 1.427 0v-3.174a3.775 3.775 0 0 0 3.044-3.693.74.74 0 0 0-.017-.164zM3.788 20.637a2.336 2.336 0 0 1-2.22-1.624h4.438a2.336 2.336 0 0 1-2.218 1.624zm2.417-3.057H1.629L5.123 1.433h3.179L6.205 17.58zm3.67 3.057a2.336 2.336 0 0 1-2.219-1.624h4.438a2.336 2.336 0 0 1-2.219 1.624zm2.39-3.057H7.644L9.74 1.433h3.922L12.265 17.58zm3.698 3.057a2.336 2.336 0 0 1-2.22-1.624h4.438a2.336 2.336 0 0 1-2.218 1.624zm2.33-3.057h-4.596l1.398-16.147h3.198V17.58zm3.757 3.057a2.336 2.336 0 0 1-2.219-1.624h4.438a2.336 2.336 0 0 1-2.219 1.624zm2.33-3.057h-4.66V1.433h4.66V17.58zm3.757 3.057a2.336 2.336 0 0 1-2.218-1.624h4.437a2.335 2.335 0 0 1-2.219 1.624zm-2.33-3.057V1.433h3.198l1.398 16.147h-4.596zm8.418 3.057a2.336 2.336 0 0 1-2.219-1.624h4.438a2.335 2.335 0 0 1-2.22 1.624zm-2.39-3.057L30.437 1.433h3.922l2.097 16.147h-4.62zm3.963-16.147h3.179L42.47 17.58h-4.576L35.798 1.433zm4.514 19.204a2.335 2.335 0 0 1-2.218-1.624h4.437a2.336 2.336 0 0 1-2.219 1.624z"/>
        <path d="M37.269 32.102h-.809v-8.456a.715.715 0 0 0-.713-.716H23.572a.715.715 0 0 0-.713.716v8.456h-.809a.715.715 0 0 0-.713.716c0 .396.319.717.713.717h15.219c.394 0 .713-.32.713-.717a.715.715 0 0 0-.713-.716zm-2.235 0H24.285v-7.739h10.749v7.739zM15.202 29.809a2.243 2.243 0 0 0-2.236 2.245 2.243 2.243 0 0 0 2.236 2.245 2.243 2.243 0 0 0 2.235-2.245 2.243 2.243 0 0 0-2.235-2.245zm0 3.057a.811.811 0 0 1 0-1.624.811.811 0 0 1 0 1.624z"/>
        <path d="M43.356 43.567h-2.33V28.232a.715.715 0 0 0-.714-.716.715.715 0 0 0-.713.716v15.335h-19.88v-19.92a.715.715 0 0 0-.713-.717H6.831a.715.715 0 0 0-.713.717v19.92H4.5v-3.105a.715.715 0 0 0-.713-.717.715.715 0 0 0-.714.717v3.105H.744a.715.715 0 0 0-.714.717c0 .395.32.716.714.716h42.612c.394 0 .714-.32.714-.717a.715.715 0 0 0-.714-.716zm-25.063 0H7.545V24.363h10.748v19.204z"/>
        <path d="M33.208 28.49a.711.711 0 0 0-1.01 0l-1.521 1.529a.726.726 0 0 0-.038.972.718.718 0 0 0 1.047.041l1.522-1.528a.719.719 0 0 0 0-1.014zM32.447 25.433a.711.711 0 0 0-1.01 0l-4.565 4.586a.726.726 0 0 0-.038.972.718.718 0 0 0 1.047.041l4.566-4.586a.72.72 0 0 0 0-1.013z"/>
    </g>
</svg>
