<svg xmlns="http://www.w3.org/2000/svg" xmlns:xlink="http://www.w3.org/1999/xlink" width="46" height="43" viewBox="0 0 46 43">
    <defs>
        <path id="a" d="M41.775 31.026V.036H.004v30.99z"/>
    </defs>
    <g fill="none" fill-rule="evenodd">
        <path fill="#36942A" d="M7.726 19.067v6.97c0 .42.34.759.76.759h28.86c.42 0 .76-.34.76-.758V4.822a.759.759 0 0 0-.76-.758h-8.62a2.62 2.62 0 0 0 .266-1.136A2.655 2.655 0 0 0 26.334.276H5.858c-.869 0-1.73.165-2.537.488L.608 1.844l.565 1.41 2.71-1.084a5.31 5.31 0 0 1 1.975-.379h20.476a1.138 1.138 0 1 1 0 2.273H.13V5.58h18.152a3.801 3.801 0 0 1-3.722 3.03H8.486c-.42 0-.76.34-.76.758a5.316 5.316 0 0 1-5.317 5.304H.131v1.516h2.278a6.825 6.825 0 0 0 5.317-2.545v3.896c-.712.105-1.43.16-2.15.164H.13v1.515h5.445c.72-.004 1.438-.054 2.15-.151zm1.519 3.182h27.342v-1.515H9.245v1.515zm0 3.031h27.342v-1.515H9.245v1.515zm27.342-19.7v13.638H9.245v-9.092h1.519v5.304c0 .419.34.758.76.758s.759.339.759.757c0 .419.34.758.76.758H32.79c.42 0 .76-.34.76-.758s.339-.757.759-.757.76-.34.76-.758V9.368a.759.759 0 0 0-.76-.757c-.42 0-.76-.34-.76-.758a.759.759 0 0 0-.76-.758H19.359c.23-.48.384-.99.46-1.515h16.77zm-16.709 6.819c0-2.089 1.362-3.788 3.038-3.788 1.676 0 3.038 1.7 3.038 3.788 0 2.09-1.362 3.789-3.038 3.789-1.676 0-3.038-1.7-3.038-3.789zM26.1 8.611h6.061a2.29 2.29 0 0 0 1.39 1.386v4.805c-.649.23-1.16.74-1.39 1.386H26.1a5.91 5.91 0 0 0 0-7.577zm-7.823 0h1.458a5.91 5.91 0 0 0 0 7.577h-6.061a2.289 2.289 0 0 0-1.39-1.386v-4.676h2.278c1.39 0 2.724-.544 3.715-1.515z"/>
        <path fill="#36942A" d="M29.752 13.157h1.519V11.64h-1.52z"/>
        <g transform="translate(3.924 11.606)">
            <mask id="b" fill="#fff">
                <use xlink:href="#a"/>
            </mask>
            <path fill="#36942A" d="M10.637 1.55h1.52V.037h-1.52zM41.017 18.902h-9.686a11.666 11.666 0 0 0-11.24-.013l-5.656.013a3.04 3.04 0 0 0-2.414 1.19 3.025 3.025 0 0 0-.519 2.636l-6.907-3.156a3.247 3.247 0 0 0-3.1.219 3.232 3.232 0 0 0-1.491 2.722v.165a3.216 3.216 0 0 0 1.792 2.893l8.856 4.417a9.938 9.938 0 0 0 4.415 1.038h25.95c.42 0 .76-.34.76-.758V19.66a.759.759 0 0 0-.76-.758zm-29.686 9.73l-8.856-4.417a1.709 1.709 0 0 1-.952-1.537v-.165a1.716 1.716 0 0 1 .79-1.449 1.725 1.725 0 0 1 1.65-.116l8.636 3.947c.1.046.207.07.317.07h7.595a.758.758 0 1 0 0-1.516h-6.076c-.84 0-1.52-.679-1.52-1.516s.68-1.515 1.52-1.515h5.823a.772.772 0 0 0 .363-.092l.194-.106a10.154 10.154 0 0 1 9.57-.105v9.396H15.066a8.416 8.416 0 0 1-3.736-.878zm20.572.879h8.355v-9.093h-8.355v9.093z" mask="url(#b)"/>
        </g>
        <path fill="#36942A" d="M37.347 39.602h1.519v-1.515h-1.52z"/>
        <path d="M-8-9h60v60H-8z"/>
    </g>
</svg>
