<svg xmlns="http://www.w3.org/2000/svg" xmlns:xlink="http://www.w3.org/1999/xlink" width="34" height="28" viewBox="0 0 34 28">
    <defs>
        <path id="a" d="M15.113.057H.003v22.386h30.218V.057H15.113z"/>
        <path id="c" d="M.029 22.623h31.987V.05H.029v22.572z"/>
    </defs>
    <g fill="none" fill-rule="evenodd">
        <g transform="translate(.178 .262)">
            <mask id="b" fill="#fff">
                <use xlink:href="#a"/>
            </mask>
            <path fill="#0F4081" d="M2.239 1.176c-.616 0-1.12.504-1.12 1.12v17.908c0 .616.504 1.12 1.12 1.12h25.744c.615 0 1.119-.504 1.119-1.12V2.295c0-.615-.504-1.119-1.12-1.119H2.24zm25.744 21.267H2.239A2.245 2.245 0 0 1 0 20.204V2.295A2.245 2.245 0 0 1 2.239.057h25.744a2.245 2.245 0 0 1 2.238 2.238v17.91a2.245 2.245 0 0 1-2.238 2.238z" mask="url(#b)"/>
            <path fill="#0F4081" d="M1.12 7.332h27.982V3.974H1.119v3.358zm28.542 1.12H.56c-.336 0-.56-.224-.56-.56V3.415c0-.336.224-.56.56-.56h29.102c.336 0 .56.224.56.56v4.477c0 .336-.224.56-.56.56z" mask="url(#b)"/>
        </g>
        <path fill="#0F4081" d="M18.646 18.228h7.835V14.31h-7.835v3.918zm8.395 1.119h-8.954c-.336 0-.56-.224-.56-.56V13.75c0-.336.224-.56.56-.56h8.954c.336 0 .56.224.56.56v5.037c0 .336-.224.56-.56.56zM7.453 12.071H2.976c-.336 0-.56-.224-.56-.56 0-.335.224-.559.56-.559h4.477c.336 0 .56.224.56.56 0 .335-.224.56-.56.56M14.169 12.071H9.692c-.336 0-.56-.224-.56-.56 0-.335.224-.559.56-.559h4.477c.336 0 .56.224.56.56 0 .335-.224.56-.56.56M10.251 14.31H2.976c-.336 0-.56-.224-.56-.56 0-.336.224-.56.56-.56h7.275c.336 0 .56.224.56.56 0 .336-.224.56-.56.56"/>
        <g transform="translate(1.752 5.115)">
            <mask id="d" fill="#fff">
                <use xlink:href="#c"/>
            </mask>
            <path fill="#0F4081" d="M12.417 9.195h-1.679c-.335 0-.56-.224-.56-.56 0-.335.225-.56.56-.56h1.68c.335 0 .559.225.559.56 0 .336-.224.56-.56.56" mask="url(#d)"/>
            <path fill="#0F4081" d="M1.168 17.59c.056.503.448.951 1.008 1.007l25.8 2.91a1.129 1.129 0 0 0 1.231-1.007l1.679-17.965c.056-.28-.056-.616-.224-.84-.168-.223-.448-.391-.727-.391l-1.288-.112v14.16a2.245 2.245 0 0 1-2.238 2.238H1.169zm26.92 5.037h-.224l-25.856-2.91a2.178 2.178 0 0 1-1.959-2.463l.056-.28c0-.28.224-.503.504-.503H26.409c.615 0 1.119-.504 1.119-1.12V.576c0-.168.056-.336.168-.391.112-.112.28-.168.448-.112l1.846.223c.616.056 1.12.336 1.512.84.391.448.56 1.063.503 1.623l-1.679 17.965c-.112 1.063-1.119 1.903-2.238 1.903z" mask="url(#d)"/>
        </g>
        <path d="M-13-16h60v60h-60z"/>
    </g>
</svg>
