<?xml version="1.0" encoding="utf-8"?>
<!-- Generator: Adobe Illustrator 21.0.2, SVG Export Plug-In . SVG Version: 6.00 Build 0)  -->
<svg version="1.1" id="Layer_1" xmlns="http://www.w3.org/2000/svg" width="45" height="45" xmlns:xlink="http://www.w3.org/1999/xlink" x="0px" y="0px"
	 viewBox="0 0 45 45" style="enable-background:new 0 0 47.1 47.1;" xml:space="preserve">
<style type="text/css">
	.st0{fill:#F5A623;}
</style>
<g>
	<path class="st0" d="M8.1,40.7c-0.4,0-0.8-0.3-0.8-0.8v-5.8c0-0.4,0.3-0.8,0.8-0.8h6.8c0.4,0,0.8,0.3,0.8,0.8V40
		c0,0.4-0.3,0.8-0.8,0.8H8.1z M8.8,39.2h5.3v-4.3H8.8V39.2z"/>
	<rect x="17.5" y="34.9" class="st0" width="3.9" height="1.5"/>
	<rect x="17.5" y="37.8" class="st0" width="10.7" height="1.5"/>
	<rect x="36.3" y="38.7" class="st0" width="3.4" height="1.5"/>
	<rect x="36.3" y="35.8" class="st0" width="3.4" height="1.5"/>
	<path class="st0" d="M4.2,44.6c-0.4,0-0.8-0.3-0.8-0.8V25.2H0.8c-0.3,0-0.5-0.1-0.6-0.3C0,24.7,0,24.4,0.1,24.2l3.4-8.7
		C3.6,15.2,3.9,15,4.2,15h6V3.2c0-0.4,0.3-0.8,0.8-0.8h25.2c0.4,0,0.8,0.3,0.8,0.8V15h6c0.3,0,0.6,0.2,0.7,0.5l3.4,9.2
		c0.1,0.2,0.1,0.5-0.1,0.7c-0.1,0.2-0.4,0.3-0.6,0.3h-2.6v18.1c0,0.4-0.3,0.8-0.8,0.8H4.2z M34,20.1v23h8.2V25.7h-4.6
		c-0.3,0-0.6-0.2-0.7-0.4L34.4,20L34,20.1z M4.9,43.1h27.5V20.9l-0.4-0.1l-1.5,3.9c-0.1,0.3-0.4,0.5-0.7,0.5H4.9V43.1z M38.1,24.2
		h7.1l-2.8-7.7h-8L38.1,24.2z M1.9,23.7h27.4l2.8-7.2H4.7L1.9,23.7z M29.1,15h6.2V4h-6.2V15z M11.7,15h15.9V8.8H11.7V15z M11.7,7.3
		h15.9V4H11.7V7.3z"/>
	<rect x="31" y="6.3" class="st0" width="2.5" height="1.5"/>
	<rect x="31" y="9.2" class="st0" width="2.5" height="1.5"/>
</g>
</svg>
