<svg xmlns="http://www.w3.org/2000/svg" xmlns:xlink="http://www.w3.org/1999/xlink" width="100" height="131" viewBox="0 0 100 131">
    <defs>
        <path id="a" d="M50.007 130.435H.015V0H100v130.435z"/>
    </defs>
    <g fill="none" fill-rule="evenodd">
        <mask id="b" fill="#fff">
            <use xlink:href="#a"/>
        </mask>
        <path fill="#8CB5D7" d="M54.347 67.392h4.348v-4.348h-4.348z" mask="url(#b)"/>
        <path fill="#8CB5D7" d="M99.363 94.115l-9.224-9.224-3.074 3.074 5.513 5.513H78.26V81.42c8.948-5.934 11.391-17.998 5.457-26.946a19.43 19.43 0 0 0-5.457-5.458V36.956h19.565V32.61H78.261v-21.74C78.254 4.87 73.39.008 67.39 0H10.87C4.87.007.007 4.87 0 10.87v108.695c.007 6 4.87 10.863 10.87 10.87h56.522c6-.007 10.862-4.87 10.869-10.87V97.826h14.318l-5.513 5.513 3.074 3.074 9.224-9.224a2.174 2.174 0 0 0-.001-3.074zM82.609 65.217a15.203 15.203 0 0 1-7.626 13.172 14.961 14.961 0 0 1-7.591 2.046c-8.405 0-15.218-6.813-15.218-15.218C52.174 56.814 58.987 50 67.392 50A14.974 14.974 0 0 1 75 52.06a15.186 15.186 0 0 1 7.608 13.157zm-71.74-60.87h56.523a6.522 6.522 0 0 1 6.521 6.523v6.521H4.348V10.87a6.522 6.522 0 0 1 6.522-6.522zm56.522 121.74H10.87a6.522 6.522 0 0 1-6.522-6.522v-6.521h69.565v6.52a6.522 6.522 0 0 1-6.522 6.523zm6.522-17.391H4.348V21.739h69.565v10.87H59.596l5.513-5.513-3.074-3.074-9.224 9.224a2.174 2.174 0 0 0 0 3.073l9.224 9.224 3.074-3.073-5.513-5.514h14.317v9.816c-.404-.146-.82-.263-1.235-.38-.085-.024-.165-.055-.248-.077a19.352 19.352 0 0 0-2.208-.434 11.923 11.923 0 0 0-.532-.068c-.763-.1-1.53-.153-2.3-.161-10.804-.066-19.617 8.64-19.683 19.446-.066 10.805 8.64 19.618 19.445 19.684.848.005 1.694-.045 2.535-.15a19.596 19.596 0 0 0 2.733-.505c.096-.025.19-.06.285-.088.406-.113.813-.23 1.208-.372v9.811H54.347v4.348h19.566v10.87z" mask="url(#b)"/>
    </g>
</svg>
