<?xml version="1.0" encoding="UTF-8"?>
<svg width="8px" height="8px" viewBox="0 0 8 8" version="1.1" xmlns="http://www.w3.org/2000/svg" xmlns:xlink="http://www.w3.org/1999/xlink">
    <!-- Generator: sketchtool 55.2 (78181) - https://sketchapp.com -->
    <title>E6521E93-42B2-4BDA-A717-A40D853A94F2</title>
    <desc>Created with sketchtool.</desc>
    <defs>
        <polygon id="path-1" points="0.000899760063 7.74193548 7.67795255 7.74193548 7.67795255 0 0.000899760063 0"></polygon>
    </defs>
    <g id="Scheme" stroke="none" stroke-width="1" fill="none" fill-rule="evenodd">
        <g id="Quick-Order-Dropdowns" transform="translate(-216.000000, -344.000000)">
            <g id="Group-10" transform="translate(19.000000, 293.000000)">
                <g id="verified" transform="translate(197.000000, 51.000000)">
                    <g id="Group-3">
                        <mask id="mask-2" fill="white">
                            <use xlink:href="#path-1"></use>
                        </mask>
                        <g id="Clip-2"></g>
                        <path d="M3.83897627,7.28830645 C1.97021961,7.28830645 0.449880032,5.75529738 0.449880032,3.87096774 C0.449880032,1.9866381 1.97021961,0.453629032 3.83897627,0.453629032 C5.70773294,0.453629032 7.22807251,1.9866381 7.22807251,3.87096774 C7.22807251,5.75529738 5.70773294,7.28830645 3.83897627,7.28830645 Z M6.55353739,1.13377016 C5.82845075,0.40265625 4.86440283,0 3.83897627,0 C2.81353472,0 1.84947181,0.40265625 1.12440016,1.13377016 C0.399313516,1.86489919 0,2.83699597 0,3.87096774 C0,4.90493952 0.399313516,5.87702117 1.12440016,6.6081502 C1.8494868,7.33927923 2.81353472,7.74193548 3.83897627,7.74193548 C4.86440283,7.74193548 5.82845075,7.33927923 6.55353739,6.6081502 C7.27862403,5.87702117 7.67795255,4.90493952 7.67795255,3.87096774 C7.67795255,2.83699597 7.27862403,1.86491431 6.55353739,1.13377016 L6.55353739,1.13377016 Z" id="Fill-1" fill="#36942A" mask="url(#mask-2)"></path>
                    </g>
                    <path d="M5.35496701,2.62893145 L3.3686117,4.63183972 L2.32298554,3.5775 C2.23515396,3.48893649 2.09272194,3.48893649 2.00487537,3.5775 C1.91702879,3.66606351 1.91702879,3.80968246 2.00487537,3.89826109 L3.20954912,5.11297379 C3.25347241,5.1572631 3.31104206,5.1794002 3.36859671,5.1794002 C3.42615136,5.1794002 3.483736,5.15724798 3.52764429,5.11297379 L5.67306218,2.94967742 C5.76090876,2.86111391 5.76090876,2.71749496 5.67306218,2.62891633 C5.58523061,2.54036794 5.44279859,2.54036794 5.35496701,2.62893145" id="Fill-4" fill="#36942A"></path>
                </g>
            </g>
        </g>
    </g>
</svg>