<svg xmlns="http://www.w3.org/2000/svg" width="44" height="45" viewBox="0 0 44 45">
    <g fill="#9B9B9B" fill-rule="nonzero">
        <path d="M43.44 14.373L22.298.121a.712.712 0 0 0-.794 0L.359 14.373a.702.702 0 0 0-.31.582V44.21c0 .388.317.703.708.703h42.286a.706.706 0 0 0 .708-.703V14.955a.702.702 0 0 0-.31-.582zM16.662 43.506H9.016V35.91h1.604v3.798c0 .388.317.703.708.703h3.02c.392 0 .709-.315.709-.703V35.91h1.604v7.595zM7.506 18.002V16.41h28.789v1.593H7.505zm4.53 21.003v-3.094h1.605v3.094h-1.605zm4.625-4.5H9.016V26.91h1.604v3.797c0 .389.317.704.708.704h3.02c.392 0 .709-.315.709-.704V26.91h1.604v7.595zm-4.625-4.501V26.91h1.605v3.094h-1.605zm13.687 13.502h-7.646V35.91h1.605v3.798c0 .388.317.703.708.703h3.02a.706.706 0 0 0 .708-.703V35.91h1.605v7.595zm-4.625-4.5V35.91h1.604v3.094h-1.604zm21.238 4.5H36.2v-15.05a.706.706 0 0 0-.708-.702.706.706 0 0 0-.708.703v15.049H27.14v-8.298a.706.706 0 0 0-.708-.703h-8.354v-8.298a.706.706 0 0 0-.708-.704H9.016V19.41h25.768v6.048c0 .388.317.703.708.703a.706.706 0 0 0 .708-.703v-6.048h.803a.706.706 0 0 0 .707-.703v-3a.706.706 0 0 0-.707-.704H6.798a.706.706 0 0 0-.708.703v3c0 .389.317.704.708.704H7.6v24.097H1.465V15.328L21.9 1.553l20.435 13.775v28.178z"/>
        <path d="M24.92 6h-6.04a.706.706 0 0 0-.708.704c0 .388.317.703.708.703h6.04a.706.706 0 0 0 .708-.703.706.706 0 0 0-.707-.703zM24.92 9.001h-6.04a.706.706 0 0 0-.708.703c0 .389.317.704.708.704h6.04a.706.706 0 0 0 .708-.704.706.706 0 0 0-.707-.703zM24.92 12.002h-6.04a.706.706 0 0 0-.708.703c0 .388.317.703.708.703h6.04a.706.706 0 0 0 .708-.703.706.706 0 0 0-.707-.703zM14.349 32.254h-3.02a.706.706 0 0 0-.709.704c0 .388.317.703.708.703h3.02c.392 0 .709-.315.709-.703a.706.706 0 0 0-.708-.704zM14.349 41.256h-3.02a.706.706 0 0 0-.709.703c0 .388.317.703.708.703h3.02c.392 0 .709-.315.709-.703a.706.706 0 0 0-.708-.703zM23.41 41.256h-3.02a.706.706 0 0 0-.708.703c0 .388.317.703.708.703h3.02a.706.706 0 0 0 .708-.703.706.706 0 0 0-.708-.703z"/>
    </g>
</svg>
