<?xml version="1.0" encoding="iso-8859-1"?>
<!-- Generator: Adobe Illustrator 18.1.1, SVG Export Plug-In . SVG Version: 6.00 Build 0)  -->
<svg version="1.1" id="Capa_1" xmlns="http://www.w3.org/2000/svg" xmlns:xlink="http://www.w3.org/1999/xlink" x="0px" y="0px"
	 viewBox="0 0 26.495 26.495" style="enable-background:new 0 0 26.495 26.495;" xml:space="preserve">
<g>
	<g>
		<path style="fill:#010002;" d="M22.742,8.642c-3.523-3.524-7.35,0-7.35,0v0.6h-0.898V8.624c1.244-0.496,2.127-1.707,2.127-3.13
			c0-1.866-1.512-3.374-3.375-3.374c-1.865,0-3.375,1.508-3.375,3.374c0,1.389,0.839,2.578,2.037,3.097v0.651h-0.809v-0.6
			c0,0-3.825-3.524-7.348,0c0,0-2.25,1.503-3.751,0c0,0,0.151,4.5,5.55,4.5c0,0,2.38,0.452,5.549-1.01v-0.902h0.809v0.823h0.587
			l0.159,3.178c-1.84-0.09-3.252-0.543-3.25-1.086c0.003-0.464,1.03-0.846,2.467-0.998l0.001-0.184
			c-1.774,0.158-3.063,0.618-3.067,1.176c-0.003,0.515,1.079,0.961,2.629,1.17c-1.164,0.188-1.956,0.537-1.956,0.944
			c0,0.438,0.902,0.812,2.2,0.988c-1.068,0.159-1.799,0.478-1.803,0.845c-0.003,0.4,0.828,0.747,2.021,0.91
			c-0.954,0.146-1.607,0.432-1.607,0.762c0,0.344,0.7,0.635,1.708,0.776c-0.742,0.122-1.247,0.351-1.247,0.608
			c0,0.302,0.648,0.557,1.565,0.662c-0.571,0.101-0.962,0.271-0.962,0.478c0,0.28,0.728,0.517,1.681,0.56l0.077,1.534h0.491
			l0.053-1.534c0.962-0.041,1.701-0.273,1.701-0.56c0-0.218-0.414-0.396-1.033-0.492c0.854-0.112,1.451-0.356,1.451-0.646
			c0-0.252-0.447-0.471-1.142-0.599c1.054-0.138,1.787-0.438,1.787-0.791c0-0.325-0.61-0.606-1.541-0.756
			c1.151-0.151,1.953-0.481,1.955-0.871c0.002-0.38-0.758-0.707-1.86-0.879c1.33-0.174,2.258-0.553,2.258-0.997
			c0-0.413-0.771-0.769-1.943-0.953c1.438-0.201,2.432-0.617,2.436-1.105c0.002-0.574-1.354-1.062-3.201-1.23v0.197
			c1.465,0.158,2.519,0.561,2.515,1.029c-0.002,0.529-1.347,0.962-3.113,1.044l0.111-3.183h0.463v-0.821h0.897v0.902
			c3.17,1.462,5.549,1.01,5.549,1.01c5.398,0,5.55-4.5,5.55-4.5C24.992,10.145,22.742,8.642,22.742,8.642z M9.999,16.259
			c0-0.398,0.881-0.74,2.12-0.878l0.545,0.033l0.088,1.771C11.189,17.106,9.999,16.724,9.999,16.259z M10.343,18.095
			c0.002-0.359,0.805-0.66,1.926-0.777V17.31l0.49,0.033l0.08,1.6C11.423,18.868,10.339,18.515,10.343,18.095z M10.7,19.761
			c0-0.315,0.704-0.586,1.692-0.691v-0.016l0.455,0.028l0.07,1.412C11.663,20.436,10.7,20.134,10.7,19.761z M11.089,21.147
			c0-0.254,0.559-0.469,1.345-0.562l0.489,0.031l0.057,1.133C11.916,21.718,11.089,21.46,11.089,21.147z M11.622,22.286
			c0-0.2,0.435-0.372,1.051-0.443l0.312,0.014l0.045,0.91C12.229,22.724,11.622,22.526,11.622,22.286z M15.048,22.286
			c0,0.236-0.6,0.438-1.39,0.479l0.032-0.914l0.238-0.018C14.582,21.897,15.048,22.077,15.048,22.286z M15.387,21.147
			c0,0.291-0.726,0.537-1.693,0.598l0.039-1.124l0.386-0.021C14.859,20.697,15.387,20.904,15.387,21.147z M15.949,19.761
			c0,0.34-0.805,0.623-1.898,0.715L14.01,20.47l-0.004,0.01l-0.269,0.017l0.05-1.405l0.463-0.021
			C15.238,19.175,15.949,19.438,15.949,19.761z M16.296,18.13c0,0.426-1.088,0.764-2.506,0.816l0.057-1.604l0.486-0.027v0.009
			C15.479,17.45,16.302,17.765,16.296,18.13z M14.52,15.386c1.231,0.137,2.114,0.475,2.114,0.873c0,0.471-1.204,0.854-2.782,0.928
			l0.062-1.767L14.52,15.386z M13.356,6.596c-0.648,0-1.17-0.523-1.17-1.169c0-0.647,0.522-1.171,1.17-1.171
			c0.644,0,1.167,0.524,1.167,1.171C14.523,6.073,14,6.596,13.356,6.596z"/>
	</g>
</g>
<g>
</g>
<g>
</g>
<g>
</g>
<g>
</g>
<g>
</g>
<g>
</g>
<g>
</g>
<g>
</g>
<g>
</g>
<g>
</g>
<g>
</g>
<g>
</g>
<g>
</g>
<g>
</g>
<g>
</g>
</svg>
