<svg xmlns="http://www.w3.org/2000/svg" width="43" height="43" viewBox="0 0 43 43">
    <defs>
        <linearGradient id="a" x1="0%" x2="107.396%" y1="110.23%" y2="27.762%">
            <stop offset="0%" stop-color="#0E3F81"/>
            <stop offset="34.8%" stop-color="#2A1443"/>
            <stop offset="70.8%" stop-color="#9A1E76"/>
            <stop offset="100%" stop-color="#E34B8C"/>
        </linearGradient>
    </defs>
    <g fill="none" fill-rule="evenodd">
        <path d="M-7-8h60v60H-7z"/>
        <g fill="url(#a)" transform="translate(.29 .134)">
            <path d="M40.655 11.874h-3.052L31.176.742A1.402 1.402 0 0 0 29.261.23L9.088 11.874H4.91a4.913 4.913 0 0 0-4.906 4.78v.105c0 .008-.004.014-.004.022v20.325a4.912 4.912 0 0 0 4.906 4.906h35.748c.774 0 1.402-.628 1.402-1.402V13.276c0-.774-.628-1.402-1.401-1.402zm-2.243 1.402h2.243v7.009h-4.078l3.197-1.846c.67-.387.9-1.244.513-1.915l-1.875-3.248zm-8.45-11.833l9.111 15.782-5.3 3.06h-5.082l6.23-3.598-.7-1.214-8.332 4.812h-2.803l10.434-6.027-.701-1.214-12.14 7.008.135.232H14.14l2.42-1.398a.7.7 0 0 0 .255-.957l-2.102-3.638a.7.7 0 0 0-.958-.256l-4.85 2.803a.7.7 0 0 0-.257.957v.001l1.44 2.489H6.849L4.467 16.16 29.962 1.443zm-19.749 16.26L13.85 15.6l1.402 2.425-3.637 2.102-1.402-2.424zm-7.777-3.4a3.456 3.456 0 0 1 2.474-1.027h1.752l-2.896 1.671a1.387 1.387 0 0 0-.699 1.126c-.018.276.046.552.186.79l1.978 3.422h-.144a3.778 3.778 0 0 1-2.688-1.143 3.45 3.45 0 0 1-.932-1.758c-.014-.08-.016-.164-.025-.246a3.231 3.231 0 0 1-.036-.448c.02-.9.39-1.755 1.03-2.388zM40.655 40.61H4.91a3.509 3.509 0 0 1-3.504-3.504V20.215a4.893 4.893 0 0 0 3.504 1.472h35.744V40.61z"/>
            <path d="M24.876 13.658a2.784 2.784 0 0 0 2.607-1.8 2.796 2.796 0 1 0-2.185-3.768 2.803 2.803 0 1 0-.42 5.568h-.002zm2.33-5.77a1.402 1.402 0 0 1 1.401 2.429c-.288.17-.63.23-.959.166-.004-.03-.015-.059-.02-.089a2.802 2.802 0 0 0-.084-.358c-.014-.045-.027-.092-.043-.14a2.757 2.757 0 0 0-.201-.446 2.814 2.814 0 0 0-.285-.397c-.032-.037-.067-.073-.101-.11a2.931 2.931 0 0 0-.259-.242c-.025-.021-.046-.048-.07-.07.111-.314.332-.577.62-.742zm-3.69 2.604a1.414 1.414 0 0 1 1.356-1.042c.214 0 .424.05.615.145.126.064.242.145.345.24.1.094.185.2.253.319.136.241.2.516.184.792-.028.468-.29.89-.697 1.121a1.401 1.401 0 0 1-2.057-1.576h.001z"/>
        </g>
    </g>
</svg>
